<?xml version="1.0" encoding="utf-8"?>
<!-- Generator: Adobe Illustrator 14.0.0, SVG Export Plug-In . SVG Version: 6.00 Build 43363)  -->
<!DOCTYPE svg PUBLIC "-//W3C//DTD SVG 1.1//EN" "http://www.w3.org/Graphics/SVG/1.1/DTD/svg11.dtd">
<svg version="1.1" id="Layer_1" xmlns="http://www.w3.org/2000/svg" xmlns:xlink="http://www.w3.org/1999/xlink" x="0px" y="0px"
	 width="170px" height="170px" viewBox="-85 -37 170 170" enable-background="new -85 -37 170 170" xml:space="preserve">
<g>
	<g>
		<g>
			<path fill="#20232A" d="M-51.361-8.536c-0.005,0-0.007,0-0.013,0c-1.4,0-2.714,0.546-3.708,1.538
				c-1.007,1.001-1.559,2.339-1.559,3.758v79.416c0,2.914,2.375,5.285,5.301,5.291c12.328,0.03,32.979,2.602,47.225,17.509V15.871
				c0-0.989-0.25-1.912-0.726-2.68C-16.533-5.645-39.005-8.505-51.361-8.536z"/>
			<path fill="#20232A" d="M56.643,76.176V-3.24c0-1.419-0.555-2.757-1.563-3.758c-0.996-0.992-2.311-1.538-3.709-1.538
				c-0.004,0-0.004,0-0.014,0C39.01-8.505,16.532-5.645,4.838,13.19c-0.476,0.768-0.729,1.691-0.729,2.68v83.105
				C18.362,84.068,39.01,81.497,51.338,81.467C54.262,81.461,56.643,79.09,56.643,76.176z"/>
			<path fill="#20232A" d="M68.701,9.781h-3.833v66.395c0,7.437-6.067,13.494-13.511,13.517
				c-10.452,0.025-27.694,2.065-39.907,13.626c21.118-5.17,43.375-1.811,56.071,1.084c1.574,0.357,3.22-0.014,4.484-1.019
				C73.267,102.368,74,100.86,74,99.241V15.075C74,12.152,71.618,9.781,68.701,9.781z"/>
			<path fill="#20232A" d="M-64.863,76.176V9.781h-3.845c-2.918,0-5.292,2.371-5.292,5.294v84.163c0,1.619,0.726,3.13,1.99,4.143
				c1.267,1.008,2.904,1.379,4.49,1.018c12.685-2.894,34.949-6.253,56.065-1.08c-12.209-11.561-29.45-13.601-39.907-13.626
				C-58.808,89.67-64.863,83.612-64.863,76.176z"/>
		</g>
	</g>
</g>
</svg>
