<?xml version="1.0" encoding="utf-8"?>
<!-- Generator: Adobe Illustrator 14.0.0, SVG Export Plug-In . SVG Version: 6.00 Build 43363)  -->
<!DOCTYPE svg PUBLIC "-//W3C//DTD SVG 1.1//EN" "http://www.w3.org/Graphics/SVG/1.1/DTD/svg11.dtd">
<svg version="1.1" id="Layer_1" xmlns="http://www.w3.org/2000/svg" xmlns:xlink="http://www.w3.org/1999/xlink" x="0px" y="0px"
	 width="250px" height="250px" viewBox="0 0 250 250" enable-background="new 0 0 250 250" xml:space="preserve">
<g>
	<g>
		<defs>
			<rect id="SVGID_1_" x="-15" y="10" width="250" height="250"/>
		</defs>
		<clipPath id="SVGID_2_">
			<use xlink:href="#SVGID_1_"  overflow="visible"/>
		</clipPath>
		<path clip-path="url(#SVGID_2_)" fill="none" stroke="#000000" stroke-width="0.5173" d="M215.272,111.226l-3.552-5.971h-1.22
			l-1.438,1.438l-7.977-18.901l1.104-0.522l-6.654-14.907l-0.806,0.739l-2.971-15.034l0.806-0.996l-0.055-0.869l-1.121-0.001
			l-0.618-3.133l-3.525-2.668l0.234-0.641l-1.431-1.132l-0.896-2.029l-0.24-0.171c-0.468-0.336-1.126-0.173-1.384,0.342
			l-0.598-1.153l-2.969-1.88l0.938-0.94l8.245,5.084l7.349-0.277l5.532,2.351l1.324,1.857l3.098-3.14l0.17-1.538l0.813-0.534
			l0.186-0.565c0.273-0.825-0.108-1.726-0.891-2.104l-3.461-0.619l-1.282-1.58c0.928-0.739,1.064-2.095,0.308-3.005l-0.008-0.008
			l-3.717-0.556l-5.596-6.258l1.238-2.691c0.368-0.963,0.057-2.052-0.764-2.676l-0.581-0.443h-2.243l-2.577,1.13
			c-0.561,0.246-0.578,1.035-0.028,1.305h2.092l1.41-0.191v0.961l-0.844,0.844l-4.154-1.569l-3.289-0.193l-3.382,0.518
			c-0.412,0.062-0.752,0.359-0.868,0.76l-1.987,6.861l-1.794-1.281h-0.343l-2.712-4.807l-3.29-2.157l-3.311-4.208l-6.729-5.682
			l-3.012-1.624l-1.922,1.091l-4.016-4.657h-2.138l-0.8,0.801l-0.993-0.801l-10.809,0.171l-0.448,0.448l-0.62-0.619h-1.601
			l-0.962,0.961l-1.196,2.842l-0.598-0.257l-2.414,1.218l-2.947,2.093l-0.657,1.442l-3.7,1.2l-5.812,3.891l-0.683,1.057h-1.055
			l-0.479,1.151l-1.593,1.074l-0.824-0.557l-0.864,0.863v0.807l-1.496,1.879l0.461,0.73l-0.461,1.592l0.307,4.566l-0.47,0.47
			l-0.797-0.739h-0.268l-0.384-1.285l-1.592-1.841l-2.11-0.289l-1.728,1.057c-1.437-2.459-3.441-4.539-5.846-6.063l-2.115-1.343
			l-2.916-0.365l0.45-0.449V28.29l-3.771-1.343l-2.896-0.691l-1.573,3.972l-1.862,0.779c-3.925,1.643-7.268,4.426-9.593,7.988
			l-0.748,1.421h-0.594l-0.135,0.805h-0.768v1.688l1.938,3.396l6.831,7.464l8.479-1.766l-0.589,0.765
			c-2.041,2.646-3.708,7.541-3.708,10.881L77.825,62.9l-4.356-0.346l-4.488-1.727L63.59,65.72l-1.957,3.186l0.153,8.748l0.901,0.518
			l0.115,3.914l-2.28,1.777l0.249,6.185l-2.348,1.332l0.226,2.573l2.979,1.287l-1.603,2.009l-1.196,0.7l-1.241,3.183h-0.926
			l-1.242,0.88l-1.535,8.714l-4.085,0.608l-0.316,4.402l3.77,1.286v1.491l-4.063,0.676l-0.293,4.582l6.344,2.123l-0.858,6.23
			l-0.79-0.384l-2.1,7.246l-0.451,5.598l0.316,0.903l1.489,0.926l2.618,0.902l0.475,2.394l2.076,3.047l2.46,0.452l0.34,2.753
			l-0.948,0.226l1.444,3.522l1.852-0.158l0.338,1.173l1.828,0.475h3.003l0.384,0.723l3.995-1.016l3.681-1.738l-0.543-0.993
			l2.19-1.49l-0.203-2.979l1.399,0.745l1.317-3.955c0.44-1.323-0.001-2.779-1.104-3.633l-1.861-1.442l0.271-1.104l-3.432-2.439
			l-2.257-0.947l-1.762-0.204l0.769-1.512v-1.377l1.692-2.349l0.857-2.775l2.551,0.88l3.477-11.852l2.958-6.478l0.564-3.747
			l2.415-3.432l0.339-2.799l-0.249-0.248l0.361-1.692l-1.965-0.926l-0.36-1.063l6.614-5.146l1.468,0.383l5.078-5.553l4.131-8.036
			l2.979-3.477l1.942-0.632v1.783l5.124,3.114l-2.032,5.352l-3.882,0.813l-0.952,1.077h-2.593c-4.306,3.273-4.939,9.508-1.381,13.58
			l0.155,0.178l0.289,2.702l-0.685,2.665l0.54,5.439h-1.188v-1.981l-2.306,0.612l-0.063,5.802h-0.834v2.428h0.808l-0.09,8.027
			c-0.611,0-1.164,0.367-1.403,0.929l-0.181,0.426v1.441h0.828v0.664l-1.297,0.793h-0.205c-0.427,0-0.73-0.415-0.602-0.822
			l0.188-0.591c-0.311-0.563-1.132-0.526-1.391,0.062l-0.15,0.344c-0.869,1.976,1.255,4.068,3.137,3.012
			c0.085-0.047,0.17-0.101,0.251-0.161l0.839-0.604l1.378,2.101l1.755,0.585v7.955l-1.824,1.826v1.721l0.74,0.74l-0.431,2.152
			l-8.093-2.273l-3.823,1.723l-1.238,3.341l-1.48-0.31l-3.961,9.677v1.996l0.689,0.276l-0.931,1.928l0.448,5.234l0.999,0.275
			l-1.309,3.548l-1.033,5.889l1.618,3.34l-0.86,6.371l-0.552,5.303l-1.791,5.751l-3.442,0.242l-5.683,4.27l-1.378,4.235l1.532,1.532
			l-8.489,12.828l2.479,1.618l4.649-6.715l1.895,1.239h0.998l1.377-2.443l1.345-0.69v0.861h0.688l-0.551,4.236l-1.309-2.136
			l-2.755,1.446l-1.24,4.201l1.138,1.86v0.655l-2.273,0.446l-0.758,3.616v3.202l1.48,0.999l2.688,0.517l-0.173,1.033l0.792,1.446
			v1.722L82.078,248l2.376-1.514v-1.172l0.654-1.066c0,0,2.687,0.413,2.479,0.206c-0.207-0.206,0.792-4.339,0.792-4.339h0.792
			l0.447-2.342l0.86-0.72l2.929-2.448l1.137-3.96l-2.205-2.204l-1.515,1.516l-0.616-2.981l0.649-3.395l4.045,1.228l5.056-1.66
			l1.227-3.973l-2.525-6.79l-2.962-2.166v-3.756l4.044-5.706l2.239,0.579l2.946,0.472c6.233,0.998,12.514-1.515,16.337-6.539
			l-2.491-2.492l-4.73-1.119l-1.698,1.696l-5.741,1.409l0.723-2.672h3.105l2.022-4.406l1.806,0.577l1.878-0.721l3.683,1.155v1.372
			l4.551,1.661l2.131-2.131v-1.048l0.848-0.848v1.988l3.938-1.265l4.376,3.599l4.717,6.857l3.308,5.544l0.583,5.203h0.974
			l1.944,9.144l-1.458-1.46l-6.905,5.69l0.533,7.295l4.231,5.154l3.599,0.633v0.924l2.092,0.39l1.313-1.313l3.259-0.633
			l-0.292,2.189l7.685,1.847l1.944-0.826l9.046,1.021l2.383-0.633l1.993,1.07v0.827l4.426,0.146l7.879-2.383v-3.355l-0.438-1.459
			l0.438-1.945l0.607-0.608l2.067,1.921l1.556-0.826l0.438-1.361v-3.259l2.698-2.699l-3.964-5.324l-2.577,1.556l1.119,1.945
			l-8.511,5.203l-2.553-2.553h5.179l3.55-2.261l0.803-2.749l-7.611-9.118h-1.265l-1.313-4.036l1.435-1.435
			c0.367-1.279-0.513-2.578-1.837-2.71l-0.376-0.038l-1.507,0.876l-2.529-3.551l-7.246,3.259v-2.772l-1.41-7.344l7.83-0.729
			l2.902-0.438c8.923-1.347,15.818-8.536,16.793-17.507l-3.258-1.167l-0.827-2.286l9.725-3.928c3.094-1.249,5.008-4.372,4.719-7.695
			l0.004-1.162c0.026-8.039-4.045-15.537-10.8-19.895l-5.203,1.945l-1.41-3.502l0.363-0.364l1.628-0.124
			c0.113-0.009,0.224-0.022,0.333-0.042c2.373-0.413,3.314-3.352,1.774-5.204l-1.618-1.946c-0.192-0.232-0.514-0.308-0.788-0.188
			c-0.248,0.107-0.408,0.352-0.408,0.62c0,0.75,0.241,1.479,0.688,2.082l0.648,0.874c0,0.55-0.318,1.049-0.816,1.28l-0.112,0.053
			l-1.831-0.433l-1.743-4.62l-1.135,0.495l-1.685-3.779l-8.049,2.558l-2.964-4.503l-9.356-11.536l1.104-1.105l-2.877-2.847
			l-0.872,0.871l-3.254-0.638h-1.685l-1.918-0.872l0.377-4.794l2.5-3.691l1.22-2.586l2.295-0.872l2.237-1.569l2.675-3.748
			l1.568,2.412l5.898-11.129l1.278-3.574l1.831-0.523l1.177,1.177l-1.032,2.949l2.471,4.069l0.349-0.35l5.026,10.548l1.134-0.522
			l0.755,2.295l3.865,7.904l0.972,0.973l0.946,1.816l0.842-0.204l4.664,4.664l2.193,1.846l-0.552,1.395l2.645,4.504l0.93,4.098
			h0.581l-0.203,0.813l-1.54,0.93l-0.843,2.064v0.842l-0.417,0.416v3.885h3.352l0.437,1.308l2.964-0.494l1.337-0.843l3.573-1.308
			l-0.232-0.843l1.705-1.705l1.607-0.794l-0.609-6.654l0.335-0.336c1.647-1.646,2.39-3.994,1.988-6.288L215,115.02
			C215.876,113.937,215.984,112.422,215.272,111.226 M151.628,160.191l-0.779,0.618l-2.993,1.105l-2.095,2.183l-0.823-0.824
			l-5.235-1.447l-1.159-1.024l0.446-1.114l-1.426-0.668l-0.445,0.445h-1.159l-0.846-0.847h-1.516l-2.584,1.426v-5.613l-1.241-0.825
			l1.598-6.126l-0.356-5.347l4.011,4.5l12.067,9.271L151.628,160.191z"/>
	</g>
	<g>
		<defs>
			<rect id="SVGID_3_" x="-15" y="10" width="250" height="250"/>
		</defs>
		<clipPath id="SVGID_4_">
			<use xlink:href="#SVGID_3_"  overflow="visible"/>
		</clipPath>
		<path clip-path="url(#SVGID_4_)" fill="#232323" d="M215.272,111.226l-3.552-5.971h-1.22l-1.438,1.438l-7.977-18.901l1.104-0.522
			l-6.654-14.907l-0.806,0.739l-2.971-15.034l0.806-0.996l-0.055-0.869l-1.121-0.001l-0.618-3.133l-3.525-2.668l0.234-0.641
			l-1.431-1.132l-0.896-2.029l-0.24-0.171c-0.468-0.336-1.126-0.173-1.384,0.342l-0.598-1.153l-2.969-1.88l0.938-0.94l8.245,5.084
			l7.349-0.277l5.532,2.351l1.324,1.857l3.098-3.14l0.17-1.538l0.813-0.534l0.186-0.565c0.273-0.825-0.108-1.726-0.891-2.104
			l-3.461-0.619l-1.282-1.58c0.928-0.739,1.064-2.095,0.308-3.005l-0.008-0.008l-3.717-0.556l-5.596-6.258l1.238-2.691
			c0.368-0.963,0.057-2.052-0.764-2.676l-0.581-0.443h-2.243l-2.577,1.13c-0.561,0.246-0.578,1.035-0.028,1.305h2.092l1.41-0.191
			v0.961l-0.844,0.844l-4.154-1.569l-3.289-0.193l-3.382,0.518c-0.412,0.062-0.752,0.359-0.868,0.76l-1.987,6.861l-1.794-1.281
			h-0.343l-2.712-4.807l-3.29-2.157l-3.311-4.208l-6.729-5.682l-3.012-1.624l-1.922,1.091l-4.016-4.657h-2.138l-0.8,0.801
			l-0.993-0.801l-10.809,0.171l-0.448,0.448l-0.62-0.619h-1.601l-0.962,0.961l-1.196,2.842l-0.598-0.257l-2.414,1.218l-2.947,2.093
			l-0.657,1.442l-3.7,1.2l-5.812,3.891l-0.683,1.057h-1.055l-0.479,1.151l-1.593,1.074l-0.824-0.557l-0.864,0.863v0.807
			l-1.496,1.879l0.461,0.73l-0.461,1.592l0.307,4.566l-0.47,0.47l-0.797-0.739h-0.268l-0.384-1.285l-1.592-1.841l-2.11-0.289
			l-1.728,1.057c-1.437-2.459-3.441-4.539-5.846-6.063l-2.115-1.343l-2.916-0.365l0.45-0.449V28.29l-3.771-1.343l-2.896-0.691
			l-1.573,3.972l-1.862,0.779c-3.925,1.643-7.268,4.426-9.593,7.988l-0.748,1.421h-0.594l-0.135,0.805h-0.768v1.688l1.938,3.396
			l6.831,7.464l8.479-1.766l-0.589,0.765c-2.041,2.646-3.708,7.541-3.708,10.881L77.825,62.9l-4.356-0.346l-4.488-1.727L63.59,65.72
			l-1.957,3.186l0.153,8.748l0.901,0.518l0.115,3.914l-2.28,1.777l0.249,6.185l-2.348,1.332l0.226,2.573l2.979,1.287l-1.603,2.009
			l-1.196,0.7l-1.241,3.183h-0.926l-1.242,0.88l-1.535,8.714l-4.085,0.608l-0.316,4.402l3.77,1.286v1.491l-4.063,0.676l-0.293,4.582
			l6.344,2.123l-0.858,6.23l-0.79-0.384l-2.1,7.246l-0.451,5.598l0.316,0.903l1.489,0.926l2.618,0.902l0.475,2.394l2.076,3.047
			l2.46,0.452l0.34,2.753l-0.948,0.226l1.444,3.522l1.852-0.158l0.338,1.173l1.828,0.475h3.003l0.384,0.723l3.995-1.016l3.681-1.738
			l-0.543-0.993l2.19-1.49l-0.203-2.979l1.399,0.745l1.317-3.955c0.44-1.323-0.001-2.779-1.104-3.633l-1.861-1.442l0.271-1.104
			l-3.432-2.439l-2.257-0.947l-1.762-0.204l0.769-1.512v-1.377l1.692-2.349l0.857-2.775l2.551,0.88l3.477-11.852l2.958-6.478
			l0.564-3.747l2.415-3.432l0.339-2.799l-0.249-0.248l0.361-1.692l-1.965-0.926l-0.36-1.063l6.614-5.146l1.468,0.383l5.078-5.553
			l4.131-8.036l2.979-3.477l1.942-0.632v1.783l5.124,3.114l-2.032,5.352l-3.882,0.813l-0.952,1.077h-2.593
			c-4.306,3.273-4.939,9.508-1.381,13.58l0.155,0.178l0.289,2.702l-0.685,2.665l0.54,5.439h-1.188v-1.981l-2.306,0.612l-0.063,5.802
			h-0.834v2.428h0.808l-0.09,8.027c-0.611,0-1.164,0.367-1.403,0.929l-0.181,0.426v1.441h0.828v0.664l-1.297,0.793h-0.205
			c-0.427,0-0.73-0.415-0.602-0.822l0.188-0.591c-0.311-0.563-1.132-0.526-1.391,0.062l-0.15,0.344
			c-0.869,1.976,1.255,4.068,3.137,3.012c0.085-0.047,0.17-0.101,0.251-0.161l0.839-0.604l1.378,2.101l1.755,0.585v7.955
			l-1.824,1.826v1.721l0.74,0.74l-0.431,2.152l-8.093-2.273l-3.823,1.723l-1.238,3.341l-1.48-0.31l-3.961,9.677v1.996l0.689,0.276
			l-0.931,1.928l0.448,5.234l0.999,0.275l-1.309,3.548l-1.033,5.889l1.618,3.34l-0.86,6.371l-0.552,5.303l-1.791,5.751l-3.442,0.242
			l-5.683,4.27l-1.378,4.235l1.532,1.532l-8.489,12.828l2.479,1.618l4.649-6.715l1.895,1.239h0.998l1.377-2.443l1.345-0.69v0.861
			h0.688l-0.551,4.236l-1.309-2.136l-2.755,1.446l-1.24,4.201l1.138,1.86v0.655l-2.273,0.446l-0.758,3.616v3.202l1.48,0.999
			l2.688,0.517l-0.173,1.033l0.792,1.446v1.722L82.078,248l2.376-1.514v-1.172l0.654-1.066c0,0,2.687,0.413,2.479,0.206
			c-0.207-0.206,0.792-4.339,0.792-4.339h0.792l0.447-2.342l0.86-0.72l2.929-2.448l1.137-3.96l-2.205-2.204l-1.515,1.516
			l-0.616-2.981l0.649-3.395l4.045,1.228l5.056-1.66l1.227-3.973l-2.525-6.79l-2.962-2.166v-3.756l4.044-5.706l2.239,0.579
			l2.946,0.472c6.233,0.998,12.514-1.515,16.337-6.539l-2.491-2.492l-4.73-1.119l-1.698,1.696l-5.741,1.409l0.723-2.672h3.105
			l2.022-4.406l1.806,0.577l1.878-0.721l3.683,1.155v1.372l4.551,1.661l2.131-2.131v-1.048l0.848-0.848v1.988l3.938-1.265
			l4.376,3.599l4.717,6.857l3.308,5.544l0.583,5.203h0.974l1.944,9.144l-1.458-1.46l-6.905,5.69l0.533,7.295l4.231,5.154
			l3.599,0.633v0.924l2.092,0.39l1.313-1.313l3.259-0.633l-0.292,2.189l7.685,1.847l1.944-0.826l9.046,1.021l2.383-0.633l1.993,1.07
			v0.827l4.426,0.146l7.879-2.383v-3.355l-0.438-1.459l0.438-1.945l0.607-0.608l2.067,1.921l1.556-0.826l0.438-1.361v-3.259
			l2.698-2.699l-3.964-5.324l-2.577,1.556l1.119,1.945l-8.511,5.203l-2.553-2.553h5.179l3.55-2.261l0.803-2.749l-7.611-9.118h-1.265
			l-1.313-4.036l1.435-1.435c0.367-1.279-0.513-2.578-1.837-2.71l-0.376-0.038l-1.507,0.876l-2.529-3.551l-7.246,3.259v-2.772
			l-1.41-7.344l7.83-0.729l2.902-0.438c8.923-1.347,15.818-8.536,16.793-17.507l-3.258-1.167l-0.827-2.286l9.725-3.928
			c3.094-1.249,5.008-4.372,4.719-7.695l0.004-1.162c0.026-8.039-4.045-15.537-10.8-19.895l-5.203,1.945l-1.41-3.502l0.363-0.364
			l1.628-0.124c0.113-0.009,0.224-0.022,0.333-0.042c2.373-0.413,3.314-3.352,1.774-5.204l-1.618-1.946
			c-0.192-0.232-0.514-0.308-0.788-0.188c-0.248,0.107-0.408,0.352-0.408,0.62c0,0.75,0.241,1.479,0.688,2.082l0.648,0.874
			c0,0.55-0.318,1.049-0.816,1.28l-0.112,0.053l-1.831-0.433l-1.743-4.62l-1.135,0.495l-1.685-3.779l-8.049,2.558l-2.964-4.503
			l-9.356-11.536l1.104-1.105l-2.877-2.847l-0.872,0.871l-3.254-0.638h-1.685l-1.918-0.872l0.377-4.794l2.5-3.691l1.22-2.586
			l2.295-0.872l2.237-1.569l2.675-3.748l1.568,2.412l5.898-11.129l1.278-3.574l1.831-0.523l1.177,1.177l-1.032,2.949l2.471,4.069
			l0.349-0.35l5.026,10.548l1.134-0.522l0.755,2.295l3.865,7.904l0.972,0.973l0.946,1.816l0.842-0.204l4.664,4.664l2.193,1.846
			l-0.552,1.395l2.645,4.504l0.93,4.098h0.581l-0.203,0.813l-1.54,0.93l-0.843,2.064v0.842l-0.417,0.416v3.885h3.352l0.437,1.308
			l2.964-0.494l1.337-0.843l3.573-1.308l-0.232-0.843l1.705-1.705l1.607-0.794l-0.609-6.654l0.335-0.336
			c1.647-1.646,2.39-3.994,1.988-6.288L215,115.02C215.876,113.937,215.984,112.422,215.272,111.226 M151.628,160.191l-0.779,0.618
			l-2.993,1.105l-2.095,2.183l-0.823-0.824l-5.235-1.447l-1.159-1.024l0.446-1.114l-1.426-0.668l-0.445,0.445h-1.159l-0.846-0.847
			h-1.516l-2.584,1.426v-5.613l-1.241-0.825l1.598-6.126l-0.356-5.347l4.011,4.5l12.067,9.271L151.628,160.191z"/>
	</g>
	<g>
		<defs>
			<rect id="SVGID_5_" x="-15" y="10" width="250" height="250"/>
		</defs>
		<clipPath id="SVGID_6_">
			<use xlink:href="#SVGID_5_"  overflow="visible"/>
		</clipPath>
	</g>
</g>
</svg>
