<?xml version="1.0" encoding="utf-8"?>
<!-- Generator: Adobe Illustrator 14.0.0, SVG Export Plug-In . SVG Version: 6.00 Build 43363)  -->
<!DOCTYPE svg PUBLIC "-//W3C//DTD SVG 1.1//EN" "http://www.w3.org/Graphics/SVG/1.1/DTD/svg11.dtd">
<svg version="1.1" id="Capa_1" xmlns="http://www.w3.org/2000/svg" xmlns:xlink="http://www.w3.org/1999/xlink" x="0px" y="0px"
	 width="170px" height="170px" viewBox="-85 -37 170 170" enable-background="new -85 -37 170 170" xml:space="preserve">
<g>
	<g>
		<circle fill="#20232A" cx="-3.199" cy="51.989" r="7.801"/>
		<path fill="#20232A" d="M14.713,57.921c2.559,0,4.625,2.073,4.625,4.63c0,2.554-2.066,4.628-4.625,4.628
			c-2.558,0-4.631-2.074-4.631-4.628C10.082,59.994,12.155,57.921,14.713,57.921z"/>
		<path fill="#20232A" d="M-57.488,122h10.974c1.677,0,3.144-1.132,3.566-2.753l6.757-25.957l1.098-4.227l1.138-4.377
			c7.929,10.059,20.216,16.518,34.015,16.518c13.751,0,26-6.413,33.927-16.408l1.135,4.37l1.099,4.217l6.734,25.864
			c0.42,1.621,1.886,2.753,3.563,2.753h10.976c2.039,0,3.679-1.651,3.679-3.685c0-2.038-1.648-3.688-3.679-3.688h-8.121
			l-7.371-28.295l-1.114-4.277c2.141-0.139,3.831-1.911,3.831-4.088c0-1.026-0.377-1.958-0.998-2.677
			c-0.752-0.864-1.856-1.416-3.101-1.416h-0.31c1.958-4.936,3.035-10.324,3.035-15.954c0-8.69-2.565-16.786-6.98-23.565l2.665-2.665
			l2.653-2.648l7.03-7.036c1.924-1.917,1.924-5.029,0-6.945l-6.179-6.181c-1.915-1.919-5.029-1.919-6.944,0l-7.104,7.105
			l-2.659,2.655l-2.667,2.671c-2.768-1.748-5.745-3.19-8.882-4.281v-3.894V9.292v-22.044h1.391c2.714,0,4.911-2.2,4.911-4.912
			v-3.422C20.582-23.8,18.385-26,15.67-26H2.009c0.326,0.72,0.506,1.521,0.506,2.361c0,1.689-0.724,3.205-1.875,4.266
			c-1.027,0.938-2.4,1.512-3.902,1.512c-1.501,0-2.873-0.574-3.899-1.512c-1.154-1.061-1.876-2.577-1.876-4.266
			c0-0.84,0.181-1.641,0.506-2.361h-7.02c-2.71,0-4.912,2.2-4.912,4.915v3.422c0,2.712,2.202,4.912,4.912,4.912h1.398V9.292v3.845
			v3.894c-16.922,5.883-29.065,21.967-29.065,40.89c0,5.634,1.078,11.019,3.035,15.954h-0.318c-1.235,0-2.344,0.552-3.096,1.416
			c-0.622,0.719-0.996,1.65-0.996,2.677c0,2.135,1.629,3.884,3.713,4.08l-1.083,4.163l-7.399,28.417h-8.124
			c-2.037,0-3.685,1.649-3.685,3.688C-61.173,120.349-59.525,122-57.488,122z M0.06,94.268c-10.769,0-20.435-4.72-27.043-12.201
			h54.091C20.494,89.548,10.83,94.268,0.06,94.268z M4.688-0.008c2.554,0,4.631,2.074,4.631,4.63c0,1.271-0.513,2.422-1.343,3.263
			C7.137,8.727,5.977,9.253,4.688,9.253c-1.569,0-2.954-0.782-3.791-1.975C0.368,6.527,0.058,5.613,0.058,4.622
			C0.058,2.066,2.132-0.008,4.688-0.008z M-14.153,24.774c0.648-0.609,1.476-1.031,2.392-1.18c0.25-0.044,0.503-0.065,0.764-0.065
			c2.557,0,4.629,2.076,4.629,4.632c0,1.484-0.7,2.805-1.788,3.652c-0.784,0.609-1.772,0.977-2.841,0.977
			c-1.22,0-2.332-0.476-3.156-1.244c-0.907-0.847-1.475-2.05-1.475-3.385C-15.628,26.821-15.061,25.62-14.153,24.774z
			 M-30.431,38.912h60.986c3.532,5.577,5.585,12.188,5.585,19.279c0,5.624-1.292,10.94-3.577,15.684H7.083
			c0.108-0.397,0.168-0.818,0.168-1.255c0-2.559-2.069-4.629-4.628-4.629c-2.558,0-4.632,2.07-4.632,4.629
			c0,0.437,0.061,0.857,0.177,1.255h-30.604c-2.292-4.743-3.577-10.06-3.577-15.684C-36.013,51.101-33.968,44.489-30.431,38.912z"/>
	</g>
</g>
</svg>
