<?xml version="1.0" encoding="utf-8"?>
<!-- Generator: Adobe Illustrator 14.0.0, SVG Export Plug-In . SVG Version: 6.00 Build 43363)  -->
<!DOCTYPE svg PUBLIC "-//W3C//DTD SVG 1.1//EN" "http://www.w3.org/Graphics/SVG/1.1/DTD/svg11.dtd">
<svg version="1.1" xmlns="http://www.w3.org/2000/svg" xmlns:xlink="http://www.w3.org/1999/xlink" x="0px" y="0px" width="48px"
	 height="48px" viewBox="0 0 48 48" enable-background="new 0 0 48 48" xml:space="preserve">
<g id="Layer_1">
	<g>
		<defs>
			<path id="SVGID_1_" d="M5.148,19.5c13.768,0,27.535,0,41.304,0c0.055,0.227,0.009,0.553,0.023,0.818c0,0-40.392-0.001-40.75,0
				C5.097,22.137,4.587,24.148,3.993,26c-0.265,0-0.53,0-0.794,0c-0.371-0.945-0.705-1.928-1.035-2.912
				c-0.279,0.051-0.362,0.629-0.625,0.697c-0.084-0.438,0.175-0.664,0.337-0.891c0.164-0.229,0.31-0.482,0.529-0.674
				c0.434,0.922,0.725,1.989,1.107,2.961C4.122,23.354,4.538,21.33,5.148,19.5z M6.448,20.68c-0.03,0.01-0.049,0.03-0.048,0.072
				c0.155,0.637,0.424,1.533,0.554,2.138c-0.347,0.048-1.072-0.024-1.589,0.004c-0.322,0.961-0.656,2.04-0.866,3.034
				c0.218,0.055,0.536,0.008,0.794,0.023c0.267-0.729,0.471-1.545,0.722-2.189c0.584-0.055,1.106-0.082,1.3,0.24
				c0.291,0.484,0.514,1.42,0.626,1.926c0.21,0.041,0.584,0.039,0.794,0c-0.42-1.723-0.979-3.514-1.493-5.223
				C7.021,20.652,6.708,20.693,6.448,20.68z M12.249,20.752c-0.041,1.669-0.04,3.505,0,5.175c0.224,0.039,0.595,0.039,0.818,0
				c0.072-1.156-0.024-2.479,0.048-3.635c0.542,0.774,1.091,1.85,1.613,2.768c0.085,0.148,0.433,0.856,0.578,0.869
				c0.336,0.028,0.726-0.013,0.915-0.002c0.041-1.686,0.041-3.539,0-5.223c-0.214-0.037-0.577-0.042-0.79,0
				c0.016,1.092,0.014,2.561,0,3.633c-0.526-0.787-1.162-1.848-1.689-2.767c-0.11-0.192-0.384-0.863-0.578-0.891
				c-0.179-0.026-0.594,0.025-0.842,0C12.286,20.694,12.262,20.718,12.249,20.752z M21.973,21.835
				c0.175-0.494,1.168-0.283,1.517-0.313c0.04-0.22,0.04-0.6,0-0.818c-1.252-0.057-2.607-0.009-3.899-0.024
				c-0.035,0.014-0.059,0.038-0.072,0.072c-0.036,0.208-0.055,0.645,0.024,0.817c0.333,0.005,1.116-0.033,1.516,0.001
				c0.024,0.789-0.019,3.335,0.002,4.357c0.214,0.037,0.697,0.041,0.91,0 M26.786,20.752c0.017,1.718-0.032,3.498,0.024,5.175
				c0.212,0.039,0.583,0.039,0.795,0c0.023-1.787,0.026-3.475,0-5.223c-0.203-0.055-0.505-0.01-0.747-0.024
				C26.824,20.694,26.8,20.718,26.786,20.752z M29.939,20.752c-0.029,0.692,0,1.664-0.048,2.118c-0.221,0.024-0.719-0.024-1.083,0
				c-0.019,0.25-0.021,0.632,0,0.843c0.357,0.068,0.697,0.005,0.938,0.121c0.347,0.166,0.216,1.415,0.217,2.094
				c0.211,0.039,0.583,0.039,0.794,0c0.04-1.686,0.04-3.539,0-5.223c-0.202-0.055-0.504-0.01-0.746-0.024
				C29.978,20.694,29.953,20.718,29.939,20.752z M34.537,20.68c0.013,0.252-0.027,0.629,0.024,0.843c0.188,0.005,3.683,0,3.683,0
				c-0.016-0.243,0.011-0.745,0-0.818 M42.962,21.209c-0.087-0.149-0.239-0.485-0.361-0.529l-0.915,0.048
				c-0.04,1.678-0.04,3.522,0,5.2c0.224,0.039,0.596,0.039,0.818,0c0.072-1.156-0.023-2.479,0.049-3.635
				c0.371,0.531,0.692,1.157,1.011,1.709c0.108,0.188,0.192,0.42,0.385,0.529c0.252-0.348,0.452-0.75,0.674-1.131
				c0.223-0.381,0.407-0.793,0.698-1.108c0.016,1.204-0.031,2.471,0.024,3.635c0.222,0.037,0.597,0.041,0.818,0
				c0.04-1.686,0.04-3.539,0-5.223l-0.915-0.024c-0.108,0.038-0.287,0.376-0.361,0.505c-0.32,0.566-0.65,1.232-0.962,1.661
				C43.621,22.427,43.269,21.74,42.962,21.209z M34.609,22.894c-0.13,0.184-0.072,0.459-0.072,0.698c0,0.781-0.02,1.627,0.024,2.336
				c1.063,0.021,2.828,0.021,3.683,0c0.041-0.221,0.036-0.598,0-0.818c-0.447-0.008-2.025,0.005-2.841-0.003
				c0.005-0.327-0.09-0.826,0.024-1.081c0.229-0.51,1.914-0.271,2.166-0.313c0.04-0.211,0.04-0.582,0-0.794
				C37.156,22.9,34.938,22.897,34.609,22.894z"/>
		</defs>
		<clipPath id="SVGID_2_">
			<use xlink:href="#SVGID_1_"  overflow="visible"/>
		</clipPath>
		<g clip-path="url(#SVGID_2_)">
			<rect x="1.521" y="19.5" fill-rule="evenodd" clip-rule="evenodd" fill="#F15A24" width="44.931" height="6.457"/>
			<linearGradient id="SVGID_3_" gradientUnits="userSpaceOnUse" x1="21.6743" y1="31.3574" x2="26.2983" y2="14.1005">
				<stop  offset="0.0045" style="stop-color:#EC5074"/>
				<stop  offset="0.4985" style="stop-color:#EF4F3B"/>
				<stop  offset="1" style="stop-color:#EE8249"/>
			</linearGradient>
			<rect x="1.521" y="19.5" fill-rule="evenodd" clip-rule="evenodd" fill="url(#SVGID_3_)" width="44.931" height="6.457"/>
		</g>
	</g>
</g>
<g id="Layer_2">
</g>
</svg>
