<svg xmlns="http://www.w3.org/2000/svg" width="170" height="170" viewBox="-85 -37 170 170"><g fill="#20232A"><path d="M-51.361-8.536h-.013c-1.4 0-2.714.546-3.708 1.538a5.265 5.265 0 0 0-1.559 3.758v79.416c0 2.914 2.375 5.285 5.301 5.291 12.328.03 32.979 2.602 47.225 17.509V15.871c0-.989-.25-1.912-.726-2.68C-16.533-5.645-39.005-8.505-51.361-8.536zM56.643 76.176V-3.24a5.265 5.265 0 0 0-1.563-3.758 5.222 5.222 0 0 0-3.709-1.538h-.014C39.01-8.505 16.532-5.645 4.838 13.19c-.476.768-.729 1.691-.729 2.68v83.105C18.362 84.068 39.01 81.497 51.338 81.467c2.924-.006 5.305-2.377 5.305-5.291z"/><path d="M68.701 9.781h-3.833v66.395c0 7.437-6.067 13.494-13.511 13.517-10.452.025-27.694 2.065-39.907 13.626 21.118-5.17 43.375-1.811 56.071 1.084a5.308 5.308 0 0 0 4.484-1.019A5.301 5.301 0 0 0 74 99.241V15.075a5.303 5.303 0 0 0-5.299-5.294zM-64.863 76.176V9.781h-3.845A5.297 5.297 0 0 0-74 15.075v84.163a5.286 5.286 0 0 0 6.48 5.161c12.685-2.894 34.949-6.253 56.065-1.08-12.209-11.561-29.45-13.601-39.907-13.626-7.446-.023-13.501-6.081-13.501-13.517z"/></g></svg>