<svg xmlns="http://www.w3.org/2000/svg" xmlns:xlink="http://www.w3.org/1999/xlink" width="250" height="250" viewBox="0 0 250 250"><defs><path id="a" d="M-15 10h250v250H-15z"/></defs><clipPath id="b"><use xlink:href="#a" overflow="visible"/></clipPath><path clip-path="url(#b)" fill="none" stroke="#000" stroke-width=".517" d="M215.272 111.226l-3.552-5.971h-1.22l-1.438 1.438-7.977-18.901 1.104-.522-6.654-14.907-.806.739-2.971-15.034.806-.996-.055-.869-1.121-.001-.618-3.133-3.525-2.668.234-.641-1.431-1.132-.896-2.029-.24-.171a.937.937 0 0 0-1.384.342l-.598-1.153-2.969-1.88.938-.94 8.245 5.084 7.349-.277 5.532 2.351 1.324 1.857 3.098-3.14.17-1.538.813-.534.186-.565a1.733 1.733 0 0 0-.891-2.104l-3.461-.619-1.282-1.58a2.114 2.114 0 0 0 .308-3.005l-.008-.008-3.717-.556-5.596-6.258 1.238-2.691a2.32 2.32 0 0 0-.764-2.676l-.581-.443h-2.243l-2.577 1.13a.72.72 0 0 0-.028 1.305h2.092l1.41-.191v.961l-.844.844-4.154-1.569-3.289-.193-3.382.518a1.07 1.07 0 0 0-.868.76l-1.987 6.861-1.794-1.281h-.343l-2.712-4.807-3.29-2.157-3.311-4.208-6.729-5.682-3.012-1.624-1.922 1.091-4.016-4.657h-2.138l-.8.801-.993-.801-10.809.171-.448.448-.62-.619h-1.601l-.962.961-1.196 2.842-.598-.257-2.414 1.218-2.947 2.093-.657 1.442-3.7 1.2-5.812 3.891-.683 1.057h-1.055l-.479 1.151-1.593 1.074-.824-.557-.864.863v.807l-1.496 1.879.461.73-.461 1.592.307 4.566-.47.47-.797-.739h-.268l-.384-1.285-1.592-1.841-2.11-.289-1.728 1.057a17.822 17.822 0 0 0-5.846-6.063l-2.115-1.343-2.916-.365.45-.449v-.611l-3.771-1.343-2.896-.691-1.573 3.972-1.862.779a21.259 21.259 0 0 0-9.593 7.988l-.748 1.421h-.594l-.135.805h-.768v1.688l1.938 3.396 6.831 7.464 8.479-1.766-.589.765c-2.041 2.646-3.708 7.541-3.708 10.881l-2.891-.749-4.356-.346-4.488-1.727-5.391 4.893-1.957 3.186.153 8.748.901.518.115 3.914-2.28 1.777.249 6.185-2.348 1.332.226 2.573 2.979 1.287-1.603 2.009-1.196.7-1.241 3.183h-.926l-1.242.88-1.535 8.714-4.085.608-.316 4.402 3.77 1.286v1.491l-4.063.676-.293 4.582 6.344 2.123-.858 6.23-.79-.384-2.1 7.246-.451 5.598.316.903 1.489.926 2.618.902.475 2.394 2.076 3.047 2.46.452.34 2.753-.948.226 1.444 3.522 1.852-.158.338 1.173 1.828.475h3.003l.384.723 3.995-1.016 3.681-1.738-.543-.993 2.19-1.49-.203-2.979 1.399.745 1.317-3.955a3.282 3.282 0 0 0-1.104-3.633l-1.861-1.442.271-1.104-3.432-2.439-2.257-.947-1.762-.204.769-1.512v-1.377l1.692-2.349.857-2.775 2.551.88 3.477-11.852 2.958-6.478.564-3.747 2.415-3.432.339-2.799-.249-.248.361-1.692-1.965-.926-.36-1.063 6.614-5.146 1.468.383 5.078-5.553 4.131-8.036 2.979-3.477 1.942-.632v1.783l5.124 3.114-2.032 5.352-3.882.813-.952 1.077h-2.593c-4.306 3.273-4.939 9.508-1.381 13.58l.155.178.289 2.702-.685 2.665.54 5.439h-1.188v-1.981l-2.306.612-.063 5.802h-.834v2.428h.808l-.09 8.027c-.611 0-1.164.367-1.403.929l-.181.426v1.441h.828v.664l-1.297.793h-.205a.632.632 0 0 1-.602-.822l.188-.591a.777.777 0 0 0-1.391.062l-.15.344c-.869 1.976 1.255 4.068 3.137 3.012.085-.047.17-.101.251-.161l.839-.604 1.378 2.101 1.755.585v7.955l-1.824 1.826v1.721l.74.74-.431 2.152-8.093-2.273-3.823 1.723-1.238 3.341-1.48-.31-3.961 9.677v1.996l.689.276-.931 1.928.448 5.234.999.275-1.309 3.548-1.033 5.889 1.618 3.34-.86 6.371-.552 5.303-1.791 5.751-3.442.242-5.683 4.27-1.378 4.235 1.532 1.532-8.489 12.828 2.479 1.618 4.649-6.715 1.895 1.239h.998l1.377-2.443 1.345-.69v.861h.688l-.551 4.236-1.309-2.136-2.755 1.446-1.24 4.201 1.138 1.86v.655l-2.273.446-.758 3.616v3.202l1.48.999 2.688.517-.173 1.033.792 1.446v1.722L82.078 248l2.376-1.514v-1.172l.654-1.066s2.687.413 2.479.206c-.207-.206.792-4.339.792-4.339h.792l.447-2.342.86-.72 2.929-2.448 1.137-3.96-2.205-2.204-1.515 1.516-.616-2.981.649-3.395 4.045 1.228 5.056-1.66 1.227-3.973-2.525-6.79-2.962-2.166v-3.756l4.044-5.706 2.239.579 2.946.472a17.13 17.13 0 0 0 16.337-6.539l-2.491-2.492-4.73-1.119-1.698 1.696-5.741 1.409.723-2.672h3.105l2.022-4.406 1.806.577 1.878-.721 3.683 1.155v1.372l4.551 1.661 2.131-2.131v-1.048l.848-.848v1.988l3.938-1.265 4.376 3.599 4.717 6.857 3.308 5.544.583 5.203h.974l1.944 9.144-1.458-1.46-6.905 5.69.533 7.295 4.231 5.154 3.599.633v.924l2.092.39 1.313-1.313 3.259-.633-.292 2.189 7.685 1.847 1.944-.826 9.046 1.021 2.383-.633 1.993 1.07v.827l4.426.146 7.879-2.383v-3.355l-.438-1.459.438-1.945.607-.608 2.067 1.921 1.556-.826.438-1.361v-3.259l2.698-2.699-3.964-5.324-2.577 1.556 1.119 1.945-8.511 5.203-2.553-2.553h5.179l3.55-2.261.803-2.749-7.611-9.118h-1.265l-1.313-4.036 1.435-1.435a2.132 2.132 0 0 0-1.837-2.71l-.376-.038-1.507.876-2.529-3.551-7.246 3.259v-2.772l-1.41-7.344 7.83-.729 2.902-.438a19.877 19.877 0 0 0 16.793-17.507l-3.258-1.167-.827-2.286 9.725-3.928a7.589 7.589 0 0 0 4.719-7.695l.004-1.162a23.586 23.586 0 0 0-10.8-19.895l-5.203 1.945-1.41-3.502.363-.364 1.628-.124c.113-.009.224-.022.333-.042 2.373-.413 3.314-3.352 1.774-5.204l-1.618-1.946a.676.676 0 1 0-1.196.432c0 .75.241 1.479.688 2.082l.648.874a1.41 1.41 0 0 1-.816 1.28l-.112.053-1.831-.433-1.743-4.62-1.135.495-1.685-3.779-8.049 2.558-2.964-4.503-9.356-11.536 1.104-1.105-2.877-2.847-.872.871-3.254-.638h-1.685l-1.918-.872.377-4.794 2.5-3.691 1.22-2.586 2.295-.872 2.237-1.569 2.675-3.748 1.568 2.412 5.898-11.129 1.278-3.574 1.831-.523 1.177 1.177-1.032 2.949 2.471 4.069.349-.35 5.026 10.548 1.134-.522.755 2.295 3.865 7.904.972.973.946 1.816.842-.204 4.664 4.664 2.193 1.846-.552 1.395 2.645 4.504.93 4.098h.581l-.203.813-1.54.93-.843 2.064v.842l-.417.416v3.885h3.352l.437 1.308 2.964-.494 1.337-.843 3.573-1.308-.232-.843 1.705-1.705 1.607-.794-.609-6.654.335-.336a7.149 7.149 0 0 0 1.988-6.288L215 115.02a3.328 3.328 0 0 0 .272-3.794m-63.644 48.965l-.779.618-2.993 1.105-2.095 2.183-.823-.824-5.235-1.447-1.159-1.024.446-1.114-1.426-.668-.445.445h-1.159l-.846-.847h-1.516l-2.584 1.426v-5.613l-1.241-.825 1.598-6.126-.356-5.347 4.011 4.5 12.067 9.271 4.535 4.287z"/><defs><path id="c" d="M-15 10h250v250H-15z"/></defs><clipPath id="d"><use xlink:href="#c" overflow="visible"/></clipPath><path clip-path="url(#d)" fill="#232323" d="M215.272 111.226l-3.552-5.971h-1.22l-1.438 1.438-7.977-18.901 1.104-.522-6.654-14.907-.806.739-2.971-15.034.806-.996-.055-.869-1.121-.001-.618-3.133-3.525-2.668.234-.641-1.431-1.132-.896-2.029-.24-.171a.937.937 0 0 0-1.384.342l-.598-1.153-2.969-1.88.938-.94 8.245 5.084 7.349-.277 5.532 2.351 1.324 1.857 3.098-3.14.17-1.538.813-.534.186-.565a1.733 1.733 0 0 0-.891-2.104l-3.461-.619-1.282-1.58a2.114 2.114 0 0 0 .308-3.005l-.008-.008-3.717-.556-5.596-6.258 1.238-2.691a2.32 2.32 0 0 0-.764-2.676l-.581-.443h-2.243l-2.577 1.13a.72.72 0 0 0-.028 1.305h2.092l1.41-.191v.961l-.844.844-4.154-1.569-3.289-.193-3.382.518a1.07 1.07 0 0 0-.868.76l-1.987 6.861-1.794-1.281h-.343l-2.712-4.807-3.29-2.157-3.311-4.208-6.729-5.682-3.012-1.624-1.922 1.091-4.016-4.657h-2.138l-.8.801-.993-.801-10.809.171-.448.448-.62-.619h-1.601l-.962.961-1.196 2.842-.598-.257-2.414 1.218-2.947 2.093-.657 1.442-3.7 1.2-5.812 3.891-.683 1.057h-1.055l-.479 1.151-1.593 1.074-.824-.557-.864.863v.807l-1.496 1.879.461.73-.461 1.592.307 4.566-.47.47-.797-.739h-.268l-.384-1.285-1.592-1.841-2.11-.289-1.728 1.057a17.822 17.822 0 0 0-5.846-6.063l-2.115-1.343-2.916-.365.45-.449v-.611l-3.771-1.343-2.896-.691-1.573 3.972-1.862.779a21.259 21.259 0 0 0-9.593 7.988l-.748 1.421h-.594l-.135.805h-.768v1.688l1.938 3.396 6.831 7.464 8.479-1.766-.589.765c-2.041 2.646-3.708 7.541-3.708 10.881l-2.891-.749-4.356-.346-4.488-1.727-5.391 4.893-1.957 3.186.153 8.748.901.518.115 3.914-2.28 1.777.249 6.185-2.348 1.332.226 2.573 2.979 1.287-1.603 2.009-1.196.7-1.241 3.183h-.926l-1.242.88-1.535 8.714-4.085.608-.316 4.402 3.77 1.286v1.491l-4.063.676-.293 4.582 6.344 2.123-.858 6.23-.79-.384-2.1 7.246-.451 5.598.316.903 1.489.926 2.618.902.475 2.394 2.076 3.047 2.46.452.34 2.753-.948.226 1.444 3.522 1.852-.158.338 1.173 1.828.475h3.003l.384.723 3.995-1.016 3.681-1.738-.543-.993 2.19-1.49-.203-2.979 1.399.745 1.317-3.955a3.282 3.282 0 0 0-1.104-3.633l-1.861-1.442.271-1.104-3.432-2.439-2.257-.947-1.762-.204.769-1.512v-1.377l1.692-2.349.857-2.775 2.551.88 3.477-11.852 2.958-6.478.564-3.747 2.415-3.432.339-2.799-.249-.248.361-1.692-1.965-.926-.36-1.063 6.614-5.146 1.468.383 5.078-5.553 4.131-8.036 2.979-3.477 1.942-.632v1.783l5.124 3.114-2.032 5.352-3.882.813-.952 1.077h-2.593c-4.306 3.273-4.939 9.508-1.381 13.58l.155.178.289 2.702-.685 2.665.54 5.439h-1.188v-1.981l-2.306.612-.063 5.802h-.834v2.428h.808l-.09 8.027c-.611 0-1.164.367-1.403.929l-.181.426v1.441h.828v.664l-1.297.793h-.205a.632.632 0 0 1-.602-.822l.188-.591a.777.777 0 0 0-1.391.062l-.15.344c-.869 1.976 1.255 4.068 3.137 3.012.085-.047.17-.101.251-.161l.839-.604 1.378 2.101 1.755.585v7.955l-1.824 1.826v1.721l.74.74-.431 2.152-8.093-2.273-3.823 1.723-1.238 3.341-1.48-.31-3.961 9.677v1.996l.689.276-.931 1.928.448 5.234.999.275-1.309 3.548-1.033 5.889 1.618 3.34-.86 6.371-.552 5.303-1.791 5.751-3.442.242-5.683 4.27-1.378 4.235 1.532 1.532-8.489 12.828 2.479 1.618 4.649-6.715 1.895 1.239h.998l1.377-2.443 1.345-.69v.861h.688l-.551 4.236-1.309-2.136-2.755 1.446-1.24 4.201 1.138 1.86v.655l-2.273.446-.758 3.616v3.202l1.48.999 2.688.517-.173 1.033.792 1.446v1.722L82.078 248l2.376-1.514v-1.172l.654-1.066s2.687.413 2.479.206c-.207-.206.792-4.339.792-4.339h.792l.447-2.342.86-.72 2.929-2.448 1.137-3.96-2.205-2.204-1.515 1.516-.616-2.981.649-3.395 4.045 1.228 5.056-1.66 1.227-3.973-2.525-6.79-2.962-2.166v-3.756l4.044-5.706 2.239.579 2.946.472a17.13 17.13 0 0 0 16.337-6.539l-2.491-2.492-4.73-1.119-1.698 1.696-5.741 1.409.723-2.672h3.105l2.022-4.406 1.806.577 1.878-.721 3.683 1.155v1.372l4.551 1.661 2.131-2.131v-1.048l.848-.848v1.988l3.938-1.265 4.376 3.599 4.717 6.857 3.308 5.544.583 5.203h.974l1.944 9.144-1.458-1.46-6.905 5.69.533 7.295 4.231 5.154 3.599.633v.924l2.092.39 1.313-1.313 3.259-.633-.292 2.189 7.685 1.847 1.944-.826 9.046 1.021 2.383-.633 1.993 1.07v.827l4.426.146 7.879-2.383v-3.355l-.438-1.459.438-1.945.607-.608 2.067 1.921 1.556-.826.438-1.361v-3.259l2.698-2.699-3.964-5.324-2.577 1.556 1.119 1.945-8.511 5.203-2.553-2.553h5.179l3.55-2.261.803-2.749-7.611-9.118h-1.265l-1.313-4.036 1.435-1.435a2.132 2.132 0 0 0-1.837-2.71l-.376-.038-1.507.876-2.529-3.551-7.246 3.259v-2.772l-1.41-7.344 7.83-.729 2.902-.438a19.877 19.877 0 0 0 16.793-17.507l-3.258-1.167-.827-2.286 9.725-3.928a7.589 7.589 0 0 0 4.719-7.695l.004-1.162a23.586 23.586 0 0 0-10.8-19.895l-5.203 1.945-1.41-3.502.363-.364 1.628-.124c.113-.009.224-.022.333-.042 2.373-.413 3.314-3.352 1.774-5.204l-1.618-1.946a.676.676 0 1 0-1.196.432c0 .75.241 1.479.688 2.082l.648.874a1.41 1.41 0 0 1-.816 1.28l-.112.053-1.831-.433-1.743-4.62-1.135.495-1.685-3.779-8.049 2.558-2.964-4.503-9.356-11.536 1.104-1.105-2.877-2.847-.872.871-3.254-.638h-1.685l-1.918-.872.377-4.794 2.5-3.691 1.22-2.586 2.295-.872 2.237-1.569 2.675-3.748 1.568 2.412 5.898-11.129 1.278-3.574 1.831-.523 1.177 1.177-1.032 2.949 2.471 4.069.349-.35 5.026 10.548 1.134-.522.755 2.295 3.865 7.904.972.973.946 1.816.842-.204 4.664 4.664 2.193 1.846-.552 1.395 2.645 4.504.93 4.098h.581l-.203.813-1.54.93-.843 2.064v.842l-.417.416v3.885h3.352l.437 1.308 2.964-.494 1.337-.843 3.573-1.308-.232-.843 1.705-1.705 1.607-.794-.609-6.654.335-.336a7.149 7.149 0 0 0 1.988-6.288L215 115.02a3.328 3.328 0 0 0 .272-3.794m-63.644 48.965l-.779.618-2.993 1.105-2.095 2.183-.823-.824-5.235-1.447-1.159-1.024.446-1.114-1.426-.668-.445.445h-1.159l-.846-.847h-1.516l-2.584 1.426v-5.613l-1.241-.825 1.598-6.126-.356-5.347 4.011 4.5 12.067 9.271 4.535 4.287z"/></svg>