<svg xmlns="http://www.w3.org/2000/svg" width="170" height="170" viewBox="-85 -37 170 170"><g fill="#20232A"><circle cx="-3.199" cy="51.989" r="7.801"/><path d="M14.713 57.921a4.625 4.625 0 0 1 4.625 4.63 4.625 4.625 0 0 1-4.625 4.628 4.63 4.63 0 0 1-4.631-4.628 4.63 4.63 0 0 1 4.631-4.63z"/><path d="M-57.488 122h10.974a3.684 3.684 0 0 0 3.566-2.753l6.757-25.957 1.098-4.227 1.138-4.377c7.929 10.059 20.216 16.518 34.015 16.518 13.751 0 26-6.413 33.927-16.408l1.135 4.37 1.099 4.217 6.734 25.864A3.68 3.68 0 0 0 46.518 122h10.976a3.678 3.678 0 0 0 3.679-3.685 3.683 3.683 0 0 0-3.679-3.688h-8.121l-7.371-28.295-1.114-4.277a4.094 4.094 0 0 0-.268-8.181h-.31a43.194 43.194 0 0 0 3.035-15.954 43.04 43.04 0 0 0-6.98-23.565l2.665-2.665 2.653-2.648 7.03-7.036a4.9 4.9 0 0 0 0-6.945L42.534 8.88a4.907 4.907 0 0 0-6.944 0l-7.104 7.105-2.659 2.655-2.667 2.671a43.23 43.23 0 0 0-8.882-4.281v-29.782h1.391a4.91 4.91 0 0 0 4.911-4.912v-3.422A4.909 4.909 0 0 0 15.67-26H2.009A5.784 5.784 0 0 1 .64-19.373a5.774 5.774 0 0 1-3.902 1.512 5.766 5.766 0 0 1-5.775-5.778c0-.84.181-1.641.506-2.361h-7.02c-2.71 0-4.912 2.2-4.912 4.915v3.422a4.914 4.914 0 0 0 4.912 4.912h1.398v29.782c-16.922 5.883-29.065 21.967-29.065 40.89a43.195 43.195 0 0 0 3.035 15.954h-.318a4.1 4.1 0 0 0-3.096 1.416 4.098 4.098 0 0 0 2.717 6.757l-1.083 4.163-7.399 28.417h-8.124a3.684 3.684 0 0 0-3.685 3.688A3.681 3.681 0 0 0-57.488 122zM.06 94.268c-10.769 0-20.435-4.72-27.043-12.201h54.091C20.494 89.548 10.83 94.268.06 94.268zM4.688-.008a4.634 4.634 0 0 1 3.288 7.893 4.625 4.625 0 0 1-3.288 1.368A4.623 4.623 0 0 1 .897 7.278 4.631 4.631 0 0 1 4.688-.008zm-18.841 24.782a4.564 4.564 0 0 1 2.392-1.18 4.632 4.632 0 0 1 5.393 4.567c0 1.484-.7 2.805-1.788 3.652a4.624 4.624 0 0 1-5.997-.267 4.619 4.619 0 0 1-1.475-3.385 4.61 4.61 0 0 1 1.475-3.387zm-16.278 14.138h60.986a35.916 35.916 0 0 1 5.585 19.279 36.04 36.04 0 0 1-3.577 15.684H7.083c.108-.397.168-.818.168-1.255a4.625 4.625 0 0 0-4.628-4.629 4.629 4.629 0 0 0-4.632 4.629c0 .437.061.857.177 1.255h-30.604a35.937 35.937 0 0 1-3.577-15.684c0-7.09 2.045-13.702 5.582-19.279z"/></g></svg>